<?xml version="1.0" encoding="UTF-8" standalone="no"?>
<!DOCTYPE svg PUBLIC "-//W3C//DTD SVG 1.1//EN" "http://www.w3.org/Graphics/SVG/1.1/DTD/svg11.dtd">
<svg width="100%" height="100%" viewBox="0 0 1200 630" version="1.1" xmlns="http://www.w3.org/2000/svg" xmlns:xlink="http://www.w3.org/1999/xlink" xml:space="preserve" xmlns:serif="http://www.serif.com/" style="fill-rule:evenodd;clip-rule:evenodd;">
    <rect x="0" y="0" width="1200" height="630" style="fill:rgb(10,10,10);"/>
    <path d="M84,122L84,418C84,419.104 83.104,420 82,420C80.896,420 80,419.104 80,418L80,122C80,120.896 80.896,120 82,120C83.104,120 84,120.896 84,122Z" style="fill:rgb(232,213,176);fill-opacity:0.6;"/>
    <g transform="matrix(1,0,0,1,108,210)">
        <text x="0px" y="0px" style="font-family:'AppleColorEmoji', 'Apple Color Emoji';font-size:72px;">📷</text>
    </g>
    <g transform="matrix(1,0,0,1,107.358398,275)">
        <text x="0px" y="0px" style="font-family:'Helvetica-Bold', 'Helvetica';font-weight:700;font-size:14px;fill:rgb(107,107,107);">K<tspan x="10.53px 21.061px 30.032px 40.563px 51.093px 60.065px 69.563px 78.289px 89.598px 100.129px 104.438px 118.072px 127.83px 138.36px 148.118px 158.649px 168.161px 172.47px 176.78px 181.089px 189.296px 197.502px 205.708px " y="0px 0px 0px 0px 0px 0px 0px 0px 0px 0px 0px 0px 0px 0px 0px 0px 0px 0px 0px 0px 0px 0px 0px ">ALKULATOR WYCENY · 2026</tspan></text>
    </g>
    <g>
        <g transform="matrix(1,0,0,1,104.849609,340)">
            <text x="0px" y="0px" style="font-family:'Helvetica-Bold', 'Helvetica';font-weight:700;font-size:56px;fill:rgb(245,245,240);">I<tspan x="14.439px 28.877px 58.902px 73.34px 106.427px 136.452px 169.539px 190.212px 220.236px 262.675px 295.762px 325.787px 340.225px 370.25px 403.337px 433.361px 460.241px 477.77px 510.857px 525.295px " y="0px 0px 0px 0px 0px 0px 0px 0px 0px 0px 0px 0px 0px 0px 0px 0px 0px 0px 0px 0px ">le naprawdę kosztuje</tspan></text>
        </g>
        <g transform="matrix(1,0,0,1,107.556641,405)">
            <text x="0px" y="0px" style="font-family:'Helvetica-Bold', 'Helvetica';font-weight:700;font-size:56px;fill:rgb(232,213,176);">T<tspan x="28.958px 71.397px 104.484px 118.922px 148.947px 163.385px 193.41px 223.435px 253.459px 267.898px 297.922px " y="0px 0px 0px 0px 0px 0px 0px 0px 0px 0px 0px ">woja sesja?</tspan></text>
        </g>
    </g>
    <g transform="matrix(1,0,0,1,106.984375,453)">
        <text x="0px" y="0px" style="font-family:'Helvetica';font-size:20px;fill:rgb(107,107,107);">Bezpłatny kalkulator dla fotografów freelancerów</text>
    </g>
    <g transform="matrix(1,0,0,1,108,477)">
        <text x="0px" y="0px" style="font-family:'Helvetica';font-size:20px;fill:rgb(107,107,107);">ZUS 2026 · Nierejestrowana i JDG</text>
    </g>
    <g transform="matrix(1,0,0,1,107.189453,548)">
        <text x="0px" y="0px" style="font-family:'Helvetica-Bold', 'Helvetica';font-weight:700;font-size:20px;fill:rgb(232,213,176);">kalkulatorfotografa.pl</text>
    </g>
    <g transform="matrix(1,0,0,1,0,22.129549)">
        <g transform="matrix(1,0,0,0.956839,0,-32.557196)">
            <path d="M1120,112.541L1120,227.459C1120,234.38 1114.623,240 1108,240L832,240C825.377,240 820,234.38 820,227.459L820,112.541C820,105.62 825.377,100 832,100L1108,100C1114.623,100 1120,105.62 1120,112.541Z" style="fill:rgb(20,20,20);stroke:rgb(42,42,42);stroke-width:1px;"/>
        </g>
        <g transform="matrix(1,0,0,0.956839,0,-32.557196)">
            <path d="M1120,112.541L1120,227.459C1120,234.38 1114.623,240 1108,240L832,240C825.377,240 820,234.38 820,227.459L820,112.541C820,105.62 825.377,100 832,100L1108,100C1114.623,100 1120,105.62 1120,112.541Z" style="fill:rgb(20,20,20);stroke:rgb(42,42,42);stroke-width:1px;"/>
        </g>
        <g transform="matrix(1,0,0,1,0,-0.534938)">
            <g transform="matrix(1,0,0,1,842,98.126709)">
                <text x="0px" y="0px" style="font-family:'AppleColorEmoji', 'Apple Color Emoji';font-size:11px;fill:rgb(102,102,102);">🔴</text>
                <text x="14.496px" y="0px" style="font-family:'Helvetica-Bold', 'Helvetica';font-weight:700;font-size:11px;fill:rgb(102,102,102);"><tspan x="14.496px 23.879px 27.155px 35.319px 38.595px 47.978px 56.142px " y="0px 0px 0px 0px 0px 0px 0px ">MINIMUM</tspan></text>
            </g>
            <g transform="matrix(1,0,0,1,841.756348,143.119873)">
                <text x="0px" y="0px" style="font-family:'Helvetica-Bold', 'Helvetica';font-weight:700;font-size:40px;fill:rgb(232,213,176);">8<tspan x="21.846px 43.692px 65.538px 76.252px 95.852px " y="0px 0px 0px 0px 0px ">50 zł</tspan></text>
            </g>
            <g transform="matrix(1,0,0,1,842.119629,168.498779)">
                <text x="0px" y="0px" style="font-family:'Helvetica';font-size:12px;fill:rgb(74,74,74);">pokrywasz koszty<tspan x="93.141px 96.475px " y="0px 0px ">, </tspan>zero zarobku</text>
            </g>
        </g>
    </g>
    <g>
        <g transform="matrix(1,0,0,0.956839,0,152.337361)">
            <path d="M1120,112.541L1120,227.459C1120,234.38 1114.623,240 1108,240L832,240C825.377,240 820,234.38 820,227.459L820,112.541C820,105.62 825.377,100 832,100L1108,100C1114.623,100 1120,105.62 1120,112.541Z" style="fill:rgb(20,20,20);stroke:rgb(42,42,42);stroke-width:1px;"/>
        </g>
        <g transform="matrix(1,0,0,0.956839,0,152.337361)">
            <path d="M1120,112.541L1120,227.459C1120,234.38 1114.623,240 1108,240L832,240C825.377,240 820,234.38 820,227.459L820,112.541C820,105.62 825.377,100 832,100L1108,100C1114.623,100 1120,105.62 1120,112.541Z" style="fill:rgb(20,20,20);stroke:rgb(232,213,176);stroke-width:1px;"/>
        </g>
        <g transform="matrix(1,0,0,1,0,184.359619)">
            <g transform="matrix(1,0,0,1,842,98.126709)">
                <text x="0px" y="0px" style="font-family:'AppleColorEmoji', 'Apple Color Emoji';font-size:11px;fill:rgb(102,102,102);">🟡</text>
                <g transform="matrix(11,0,0,11,72.862539,0)">
                </g>
                <text x="14.496px" y="0px" style="font-family:'Helvetica-Bold', 'Helvetica';font-weight:700;font-size:11px;fill:rgb(102,102,102);"><tspan x="14.496px 22.257px 29.814px 37.978px 46.142px 54.918px 64.919px " y="0px 0px 0px 0px 0px 0px 0px ">RYNKOWA</tspan></text>
            </g>
            <g transform="matrix(1,0,0,1,841.756348,143.119873)">
                <text x="0px" y="0px" style="font-family:'Helvetica-Bold', 'Helvetica';font-weight:700;font-size:40px;fill:rgb(232,213,176);">1<tspan x="21.846px 32.559px 54.405px 76.252px 98.098px 108.811px 128.411px " y="0px 0px 0px 0px 0px 0px 0px "> 360 zł</tspan></text>
            </g>
            <g transform="matrix(1,0,0,1,842.119629,168.498779)">
                <g transform="matrix(12,0,0,12,169.412109,0)">
                </g>
                <text x="0px" y="0px" style="font-family:'Helvetica';font-size:12px;fill:rgb(74,74,74);">konkurencyjna stawka w Polsce</text>
            </g>
        </g>
        <g transform="matrix(1.173714,0,0,1,-190.715169,-12.213075)">
            <path d="M1108,282C1108,288.071 1103.801,293 1098.628,293L1005.372,293C1000.199,293 996,288.071 996,282C996,275.929 1000.199,271 1005.372,271L1098.628,271C1103.801,271 1108,275.929 1108,282Z" style="fill:rgb(212,172,13);fill-opacity:0.18;stroke:rgb(212,172,13);stroke-width:1px;"/>
        </g>
        <g transform="matrix(1,0,0,1,987.283164,273.396925)">
            <text x="0px" y="0px" style="font-family:'PingFangSC-Semibold', 'PingFang SC', sans-serif;font-weight:600;font-size:10px;fill:rgb(212,172,13);">★</text>
            <g transform="matrix(10,0,0,10,113.474805,0)">
            </g>
            <text x="15.917px" y="0px" style="font-family:'Helvetica-Bold', 'Helvetica';font-weight:700;font-size:10px;fill:rgb(212,172,13);"><tspan x="15.917px 23.258px 30.048px 37.39px 45.288px 53.738px 60.528px 67.87px 75.212px 83.11px 92.122px 99.463px 106.805px " y="0px 0px 0px 0px 0px 0px 0px 0px 0px 0px 0px 0px 0px ">REKOMENDOWANY</tspan></text>
        </g>
    </g>
    <g transform="matrix(1,0,0,1,0,-17.84754)">
        <g transform="matrix(1,0,0,0.956839,0,332.94991)">
            <path d="M1120,112.541L1120,227.459C1120,234.38 1114.623,240 1108,240L832,240C825.377,240 820,234.38 820,227.459L820,112.541C820,105.62 825.377,100 832,100L1108,100C1114.623,100 1120,105.62 1120,112.541Z" style="fill:rgb(20,20,20);stroke:rgb(42,42,42);stroke-width:1px;"/>
        </g>
        <g transform="matrix(1,0,0,0.956839,0,332.94991)">
            <path d="M1120,112.541L1120,227.459C1120,234.38 1114.623,240 1108,240L832,240C825.377,240 820,234.38 820,227.459L820,112.541C820,105.62 825.377,100 832,100L1108,100C1114.623,100 1120,105.62 1120,112.541Z" style="fill:rgb(20,20,20);stroke:rgb(42,42,42);stroke-width:1px;"/>
        </g>
        <g transform="matrix(1,0,0,1,0,364.972168)">
            <g transform="matrix(1,0,0,1,842,98.126709)">
                <text x="0px" y="0px" style="font-family:'AppleColorEmoji', 'Apple Color Emoji';font-size:11px;fill:rgb(102,102,102);">🟢</text>
                <g transform="matrix(11,0,0,11,67.76,0)">
                </g>
                <text x="14.496px" y="0px" style="font-family:'Helvetica-Bold', 'Helvetica';font-weight:700;font-size:11px;fill:rgb(102,102,102);"><tspan x="14.496px 22.053px 30.217px 37.774px 47.157px 50.433px 58.597px " y="0px 0px 0px 0px 0px 0px 0px ">PREMIUM</tspan></text>
            </g>
            <g transform="matrix(1,0,0,1,841.756348,143.119873)">
                <text x="0px" y="0px" style="font-family:'Helvetica-Bold', 'Helvetica';font-weight:700;font-size:40px;fill:rgb(232,213,176);">2<tspan x="21.846px 32.559px 54.405px 76.252px 98.098px 108.811px 128.411px " y="0px 0px 0px 0px 0px 0px 0px "> 040 zł</tspan></text>
            </g>
            <g transform="matrix(1,0,0,1,842.119629,168.498779)">
                <g transform="matrix(12,0,0,12,198.087891,0)">
                </g>
                <text x="0px" y="0px" style="font-family:'Helvetica';font-size:12px;fill:rgb(74,74,74);">dla fotografa z wyraźną marką i niszą</text>
            </g>
        </g>
    </g>
</svg>
